PathFileType	4	(X/Y/Z)	Patient4_TMGait_0pt6_02_right_34.trc.trc
DataRate	CameraRate	NumFrames	NumMarkers	Units	OrigDataRate	OrigDataStartFrame	OrigNumFrames
81.871345029240	81.871345029240	4	33	mm	81.871345029240	89	       141
Frame#	Time	Sacral			L.Shoulder			Chest			R.Shoulder			Neck			R.ASIS			L.ASIS			R.Thigh.Superior			R.Thigh.Lateral			R.Thigh.Inferior			R.Patella			L.Thigh.Superior			L.Thigh.Lateral			L.Thigh.Inferior			L.Patella			L.Shank.Superior			L.Shank.Lateral			L.Shank.Inferior			R.Shank.Superior			R.Shank.Lateral			R.Shank.Inferior			R.Heel			R.Midfoot.Superior			R.Midfoot.Lateral			R.Toe			L.Heel			L.Midfoot.Lateral			L.Midfoot.Superior			L.Toe			L.Elbow			L.Wrist			R.Elbow			R.Wrist			
		X1	Y1	Z1	X2	Y2	Z2	X3	Y3	Z3	X4	Y4	Z4	X5	Y5	Z5	X6	Y6	Z6	X7	Y7	Z7	X8	Y8	Z8	X9	Y9	Z9	X10	Y10	Z10	X11	Y11	Z11	X12	Y12	Z12	X13	Y13	Z13	X14	Y14	Z14	X15	Y15	Z15	X16	Y16	Z16	X17	Y17	Z17	X18	Y18	Z18	X19	Y19	Z19	X20	Y20	Z20	X21	Y21	Z21	X22	Y22	Z22	X23	Y23	Z23	X24	Y24	Z24	X25	Y25	Z25	X26	Y26	Z26	X27	Y27	Z27	X28	Y28	Z28	X29	Y29	Z29	X30	Y30	Z30	X31	Y31	Z31	X32	Y32	Z32	X33	Y33	Z33	

89	41.974857142857	813.274626231886	1007.240021937849	454.988916587396	989.784707545160	1430.133274187698	267.592794691681	1101.469006595709	1359.314621004416	420.995575652331	1030.522986376417	1438.989602564077	597.319076179312	995.684049835328	1490.663187988351	417.983489143139	1038.038082475325	935.745200084288	564.755179696388	1022.988659300143	956.576245914980	292.261682312806	1078.362705216393	732.984951328268	546.874124930062	998.946926443516	623.615866823056	610.677734182681	1082.360858054730	564.970880582265	538.638324779434	1071.899193817462	454.394793852046	558.469508918092	1090.418557375280	762.250968264916	325.705136775052	1017.658210670173	636.189644690466	267.362932056854	1111.406248198522	569.602098916823	332.052449916106	1120.125975339837	499.509838136111	341.687285668057	1098.246178649237	425.034593724456	333.656690047321	1017.271598971593	303.567001403444	285.673394509305	1079.324912339901	197.802551447753	356.450425467462	990.712719194759	389.847885604850	560.407136278183	866.000611987334	355.417699187376	615.761413820717	847.272961919583	248.571251834436	563.611999487260	643.747830497276	196.122050991599	528.084386658875	806.455930052012	127.828489426961	571.832333706037	696.611399264669	131.069876978127	599.958215886456	864.496120382674	28.671969915897	592.753163211909	962.391914709566	37.951166840191	402.293301971660	1033.966692591730	35.876446764195	319.309031404622	1116.132004736870	98.278381246975	343.732445856000	1244.496482066713	49.808500843357	312.141233430132	902.539855331576	1081.487646230326	166.188200025058	909.330532600980	821.114692655589	180.239192017187	1079.602218505977	1097.321527053580	720.376395339209	1314.050205840151	1042.676277104462	638.445602723137	
90	41.987071428571	812.698920494963	1007.392847892578	452.616295489306	990.928034217080	1430.627080850328	265.861908060819	1101.349500567439	1359.923541670665	420.243088407870	1028.792248991005	1439.392805402029	596.039283993964	995.454163476442	1491.170483750798	416.329632863297	1037.434009919429	936.387504464541	563.272485478540	1023.304329358962	957.246991745561	290.961475790627	1083.566858374182	736.381160727304	545.725303148749	1007.957631443119	625.264957747005	610.042300515523	1093.119327232464	568.485955694987	537.853443169151	1084.771290924204	456.827834361545	557.929803076249	1089.330713946858	761.315192006235	324.297874382980	1015.687051209881	636.111694179849	266.170819415472	1108.315740749882	568.802559238308	331.537366362277	1116.263368144846	498.712384805094	341.322185961488	1093.929139147128	424.312788760454	333.245411963341	1012.290685518484	303.359750324231	285.212428467320	1073.125242346170	197.320705075897	356.474481809659	1002.298618707946	392.595055227146	559.965728653755	876.631746039739	361.611306272526	615.529362977449	855.249866726475	255.093121221558	564.007146960018	651.760149774118	212.231503031978	528.191012487735	809.562675780533	132.954892656072	572.313470209816	699.927552933126	143.312895064851	599.988755856974	860.248705563957	27.470062391647	593.241729394191	954.963926729978	37.901090509291	402.271770939070	1026.555707925684	35.791108449711	319.312354751854	1108.854771102231	98.067799146420	343.880547962107	1237.189396417743	49.376306197721	312.194892035132	910.802788299259	1080.757702034213	161.728969869620	927.380244353477	820.603418995609	174.894969569577	1067.693816983118	1095.776754263591	719.155614492408	1300.015170423839	1024.692835464771	642.223567711398	
91	41.999285714286	811.997296525841	1007.505012744637	450.358162534666	992.002563701847	1431.068841692613	264.312476921140	1101.162659993701	1360.433024279914	419.651823881844	1027.006233714921	1439.679119396276	594.937878989381	995.229775989934	1491.619160849343	414.867926547965	1036.763091718163	937.016526993204	561.929893832947	1023.492525644640	957.843854837313	289.751832412493	1088.529791679076	740.042431476845	544.370696414227	1016.902460709989	627.317518812471	609.289451344010	1103.528730798045	572.508849411245	536.706908674227	1097.523643958491	459.854328596320	556.941275083549	1088.119016054749	760.445281201611	323.138074264692	1013.710414793423	636.065018739846	265.025304055281	1105.188545899013	568.037230952038	331.075616367640	1112.360539346925	497.925117261068	340.965021792074	1089.581246306265	423.603322839558	332.852909276519	1007.288015240020	303.165813148285	284.734143185557	1066.918489965886	196.851423450661	356.473509564246	1013.977114676108	395.767907530268	559.200011904855	887.633185773272	367.755970734221	615.118136624849	863.916248130767	261.596315545530	564.156837947207	660.951156398810	227.295709501277	528.183097552624	813.835136809474	138.280468821641	572.648078500104	704.670317733962	155.062362004780	599.914820019472	857.593531742185	26.757334272492	593.673032840348	947.545668955832	37.864958480480	402.234207960677	1019.157681049470	35.721741824548	319.300223938091	1101.593055310154	97.872495354248	344.015021778436	1229.896766479541	48.935347939915	312.248268036077	919.285504209220	1080.182152723930	157.336583653530	946.106359815605	820.643800697002	169.668658319830	1055.782744542724	1094.340404017414	717.734681125164	1284.595034687801	1006.144422123619	646.285726417357	
92	42.011500000000	811.195573422737	1007.628962786052	448.217154294501	992.990296589791	1431.498606475699	262.953017602875	1100.919461916352	1360.875924594986	419.202946605432	1025.221985353274	1439.888086313591	594.005181769356	995.032934088410	1492.042066700688	413.603029882652	1036.033747249114	937.683765214735	560.738575407230	1023.569528485981	958.399262318754	288.622870478414	1093.182261306680	743.969845904976	542.760737820826	1025.703405029940	629.787382777764	608.385942937567	1113.500083837503	577.029477528436	535.175357424550	1110.068084582933	463.464486726424	555.536783951428	1086.829209326706	759.660879584726	322.147524932432	1011.655253251782	636.040775343302	263.958738586768	1102.002674793282	567.295849910227	330.631575382866	1108.406165134136	497.158609438033	340.627489660580	1085.189029455876	422.922064328755	332.489261650126	1002.238478709988	303.002338795438	284.266623748533	1060.695167538686	196.406421124034	356.451994609339	1025.661302668197	399.350556739069	558.147987022440	898.880668224695	373.769352659691	614.513455940719	873.224908616526	267.941296286963	564.065618529555	671.087600152817	240.821689308224	528.089043478250	819.428523679208	143.668881861281	572.835444576421	710.873686741094	165.890784808189	599.751359636012	857.029304117117	26.720141268208	593.983370708177	940.142171463650	37.844093932798	402.181568994951	1011.775132571972	35.672790117612	319.272024622740	1094.341719466345	97.702798024771	344.129150835937	1222.615114764257	48.511097250796	312.291107743156	927.984569192121	1079.805966499454	153.044961643348	965.439838475941	821.341131594895	164.618495739004	1043.971984216980	1093.071075891147	716.146189483669	1267.691698598591	987.270190827299	650.599678334210	
